<?xml version="1.0" encoding="utf-8" standalone="no"?>
<!DOCTYPE svg PUBLIC "-//W3C//DTD SVG 1.1//EN"
  "http://www.w3.org/Graphics/SVG/1.1/DTD/svg11.dtd">
<!-- Created with matplotlib (https://matplotlib.org/) -->
<svg height="504pt" version="1.1" viewBox="0 0 504 504" width="504pt" xmlns="http://www.w3.org/2000/svg" xmlns:xlink="http://www.w3.org/1999/xlink">
 <metadata>
  <rdf:RDF xmlns:cc="http://creativecommons.org/ns#" xmlns:dc="http://purl.org/dc/elements/1.1/" xmlns:rdf="http://www.w3.org/1999/02/22-rdf-syntax-ns#">
   <cc:Work>
    <dc:type rdf:resource="http://purl.org/dc/dcmitype/StillImage"/>
    <dc:date>2021-11-04T10:59:24.944299</dc:date>
    <dc:format>image/svg+xml</dc:format>
    <dc:creator>
     <cc:Agent>
      <dc:title>Matplotlib v3.3.4, https://matplotlib.org/</dc:title>
     </cc:Agent>
    </dc:creator>
   </cc:Work>
  </rdf:RDF>
 </metadata>
 <defs>
  <style type="text/css">*{stroke-linecap:butt;stroke-linejoin:round;}</style>
 </defs>
 <g id="figure_1">
  <g id="patch_1">
   <path d="M 0 504 
L 504 504 
L 504 0 
L 0 0 
z
"/>
  </g>
  <g id="patch_2">
   <path d="M 10.8 493.2 
L 493.2 493.2 
L 493.2 10.8 
L 10.8 10.8 
z
"/>
  </g>
  <g id="axes_1">
   <g id="Poly3DCollection_1">
    <path clip-path="url(#p139d330a41)" d="M 50.824365 273.357294 
L 56.161983 272.86862 
L 61.350448 270.619793 
L 66.491928 267.937523 
L 71.796452 267.903118 
L 77.075813 267.868876 
L 82.246779 266.521536 
L 87.586663 268.237327 
L 93.154121 274.284209 
L 98.721062 281.137256 
L 103.994769 283.646081 
L 109.02583 282.292782 
L 113.926299 278.806245 
L 118.772905 274.470877 
L 123.695423 271.855805 
L 128.564146 268.391855 
L 133.460931 265.791671 
L 138.195934 259.771934 
L 142.840325 251.603724 
L 147.49045 243.425429 
L 152.064112 233.06807 
L 156.697795 223.990268 
L 161.294922 213.581744 
L 165.976671 205.34438 
L 170.935942 205.89462 
L 175.908962 207.753629 
L 180.601378 200.428786 
L 185.206204 189.57916 
L 189.857145 180.024175 
L 194.626964 175.329595 
L 199.345193 168.421935 
L 203.879051 151.68308 
L 208.453169 135.276821 
L 213.087102 120.582773 
L 217.836297 112.225572 
L 222.708953 113.468261 
L 227.522161 111.517732 
L 232.271509 104.099144 
L 237.007074 94.382529 
L 241.718923 78.638769 
L 246.465976 64.19626 
L 251.255491 56.709375 
L 256.04917 50.624343 
L 260.84499 39.838778 
L 265.659982 26.654116 
L 270.1573 30.59149 
L 274.636009 39.740169 
L 279.095557 50.756674 
L 283.500214 66.877659 
L 287.92867 77.810455 
L 292.398394 84.094783 
L 296.80443 95.453555 
L 301.177555 108.15169 
L 296.384839 116.496626 
L 291.546665 129.366112 
L 286.720755 143.079057 
L 281.904264 158.508279 
L 277.195186 161.857794 
L 272.543255 151.331447 
L 267.833034 141.588222 
L 263.06512 134.481095 
L 258.252032 127.767126 
L 253.393813 120.527583 
L 248.495486 115.086399 
L 243.568345 111.945227 
L 238.678051 119.103475 
L 233.856369 134.164165 
L 229.02007 144.992568 
L 224.175767 153.95298 
L 219.370291 165.186095 
L 214.621838 179.108134 
L 209.889718 192.509357 
L 205.1884 206.294397 
L 200.519869 220.453853 
L 195.767962 229.685668 
L 190.918884 234.493153 
L 185.960963 235.332896 
L 181.092704 240.156828 
L 176.166335 243.22096 
L 171.282658 248.05902 
L 166.523664 256.864581 
L 161.939712 270.463664 
L 157.378795 283.994414 
L 152.774482 295.736805 
L 148.049199 304.00869 
L 143.14923 307.990745 
L 138.221155 311.551837 
L 133.12461 311.688922 
L 127.71516 305.786119 
L 122.385583 302.43862 
L 116.926804 297.318859 
L 111.608902 295.669804 
L 106.429248 297.09011 
L 101.431239 302.031683 
L 96.452799 307.417924 
L 91.442776 312.371673 
L 86.09426 312.074883 
L 81.410127 303.356658 
L 76.837818 296.396542 
L 72.475843 292.533286 
L 68.216097 290.004211 
L 64.064197 288.806183 
L 59.644455 283.64901 
L 55.101144 276.73179 
z
" style="fill:none;stroke:#ffffff;stroke-width:0.5;"/>
    <path clip-path="url(#p139d330a41)" d="M 86.09426 312.074883 
L 91.442776 312.371673 
L 96.452799 307.417924 
L 101.431239 302.031683 
L 106.429248 297.09011 
L 111.608902 295.669804 
L 116.926804 297.318859 
L 122.385583 302.43862 
L 127.71516 305.786119 
L 133.12461 311.688922 
L 138.221155 311.551837 
L 143.14923 307.990745 
L 148.049199 304.00869 
L 152.774482 295.736805 
L 157.378795 283.994414 
L 161.939712 270.463664 
L 166.523664 256.864581 
L 171.282658 248.05902 
L 176.166335 243.22096 
L 181.092704 240.156828 
L 185.960963 235.332896 
L 190.918884 234.493153 
L 195.767962 229.685668 
L 200.519869 220.453853 
L 205.1884 206.294397 
L 209.889718 192.509357 
L 214.621838 179.108134 
L 219.370291 165.186095 
L 224.175767 153.95298 
L 229.02007 144.992568 
L 233.856369 134.164165 
L 238.678051 119.103475 
L 243.568345 111.945227 
L 248.495486 115.086399 
L 253.393813 120.527583 
L 258.252032 127.767126 
L 263.06512 134.481095 
L 267.833034 141.588222 
L 272.543255 151.331447 
L 277.195186 161.857794 
L 281.904264 158.508279 
L 286.720755 143.079057 
L 291.546665 129.366112 
L 296.384839 116.496626 
L 301.177555 108.15169 
L 305.511839 122.163652 
L 309.841309 135.2066 
L 314.126942 149.539216 
L 318.492714 158.90223 
L 322.84123 168.693602 
L 327.128167 180.673997 
L 331.580034 185.575214 
L 336.074141 189.161389 
L 331.369104 194.745264 
L 326.703332 198.573871 
L 322.137275 197.563894 
L 317.547068 196.548576 
L 313.01752 191.081663 
L 308.47311 184.223603 
L 303.871399 178.203773 
L 299.228882 172.130565 
L 294.476389 171.481351 
L 289.640257 176.301203 
L 284.818876 178.851956 
L 279.993933 180.042411 
L 275.131928 184.431263 
L 270.267787 187.460222 
L 265.384612 193.230003 
L 260.492638 207.157382 
L 255.62876 224.148848 
L 250.783143 234.800171 
L 245.929409 240.542881 
L 241.069826 245.845685 
L 236.20207 250.71048 
L 231.36695 259.559523 
L 226.483634 263.55021 
L 221.608603 268.870723 
L 216.702336 272.435625 
L 211.814876 277.768848 
L 206.955583 284.862742 
L 202.016943 288.011984 
L 196.977354 287.215034 
L 191.931651 287.296094 
L 187.022306 293.552833 
L 181.964248 294.531375 
L 176.898167 295.955566 
L 171.979792 302.680335 
L 167.19357 313.353303 
L 162.559619 327.911272 
L 158.01647 344.108096 
L 153.237311 353.353575 
L 148.256605 357.452515 
L 143.192692 359.8463 
L 138.054732 360.960646 
L 132.612513 356.04671 
L 126.95283 347.608794 
L 121.49614 344.339392 
L 117.519881 349.548312 
L 113.416815 351.680765 
L 109.390022 354.660779 
L 105.099375 352.461296 
L 100.318962 341.639723 
L 95.316018 327.302635 
L 90.611339 318.157315 
z
" style="fill:none;stroke:#ffffff;stroke-width:0.5;"/>
    <path clip-path="url(#p139d330a41)" d="M 121.49614 344.339392 
L 126.95283 347.608794 
L 132.612513 356.04671 
L 138.054732 360.960646 
L 143.192692 359.8463 
L 148.256605 357.452515 
L 153.237311 353.353575 
L 158.01647 344.108096 
L 162.559619 327.911272 
L 167.19357 313.353303 
L 171.979792 302.680335 
L 176.898167 295.955566 
L 181.964248 294.531375 
L 187.022306 293.552833 
L 191.931651 287.296094 
L 196.977354 287.215034 
L 202.016943 288.011984 
L 206.955583 284.862742 
L 211.814876 277.768848 
L 216.702336 272.435625 
L 221.608603 268.870723 
L 226.483634 263.55021 
L 231.36695 259.559523 
L 236.20207 250.71048 
L 241.069826 245.845685 
L 245.929409 240.542881 
L 250.783143 234.800171 
L 255.62876 224.148848 
L 260.492638 207.157382 
L 265.384612 193.230003 
L 270.267787 187.460222 
L 275.131928 184.431263 
L 279.993933 180.042411 
L 284.818876 178.851956 
L 289.640257 176.301203 
L 294.476389 171.481351 
L 299.228882 172.130565 
L 303.871399 178.203773 
L 308.47311 184.223603 
L 313.01752 191.081663 
L 317.547068 196.548576 
L 322.137275 197.563894 
L 326.703332 198.573871 
L 331.369104 194.745264 
L 336.074141 189.161389 
L 340.553403 193.637351 
L 345.027011 198.561215 
L 349.492873 203.931648 
L 354.022888 207.551251 
L 358.454964 214.251995 
L 362.936419 219.640924 
L 367.592185 220.656214 
L 372.12604 225.186728 
L 367.654374 224.241574 
L 362.930229 229.451169 
L 358.310756 231.593391 
L 353.855968 228.455682 
L 349.184758 231.048781 
L 344.513848 233.207339 
L 339.802592 236.257043 
L 335.115695 237.987496 
L 330.355705 241.937324 
L 325.62913 244.125067 
L 320.71999 253.830999 
L 315.912315 259.12219 
L 311.200089 259.13564 
L 306.412134 262.240533 
L 301.625705 264.470639 
L 296.799655 268.474036 
L 291.943087 274.248158 
L 287.060703 282.222751 
L 282.167935 291.938755 
L 277.268182 304.2404 
L 272.406171 313.036711 
L 267.556151 320.526519 
L 262.720512 320.68625 
L 257.860421 315.205143 
L 252.972719 317.53091 
L 248.097721 327.247795 
L 243.24334 338.666407 
L 238.335333 340.595683 
L 233.414078 342.963148 
L 228.52508 349.647762 
L 223.624928 355.473702 
L 218.702537 360.016716 
L 213.722048 361.562697 
L 208.674323 360.530663 
L 203.552981 357.328411 
L 198.3545 352.359846 
L 193.025024 343.834004 
L 187.796706 341.40803 
L 182.706546 345.161538 
L 177.723913 352.890962 
L 172.603945 356.2206 
L 167.33584 355.591112 
L 162.10178 356.728401 
L 156.828468 357.427454 
L 152.321887 355.158402 
L 147.832472 352.897994 
L 143.548862 355.056714 
L 139.080879 352.368823 
L 134.648567 350.129834 
L 130.483411 353.157922 
L 126.02803 349.618884 
z
" style="fill:none;stroke:#ffffff;stroke-width:0.5;"/>
    <path clip-path="url(#p139d330a41)" d="M 156.828468 357.427454 
L 162.10178 356.728401 
L 167.33584 355.591112 
L 172.603945 356.2206 
L 177.723913 352.890962 
L 182.706546 345.161538 
L 187.796706 341.40803 
L 193.025024 343.834004 
L 198.3545 352.359846 
L 203.552981 357.328411 
L 208.674323 360.530663 
L 213.722048 361.562697 
L 218.702537 360.016716 
L 223.624928 355.473702 
L 228.52508 349.647762 
L 233.414078 342.963148 
L 238.335333 340.595683 
L 243.24334 338.666407 
L 248.097721 327.247795 
L 252.972719 317.53091 
L 257.860421 315.205143 
L 262.720512 320.68625 
L 267.556151 320.526519 
L 272.406171 313.036711 
L 277.268182 304.2404 
L 282.167935 291.938755 
L 287.060703 282.222751 
L 291.943087 274.248158 
L 296.799655 268.474036 
L 301.625705 264.470639 
L 306.412134 262.240533 
L 311.200089 259.13564 
L 315.912315 259.12219 
L 320.71999 253.830999 
L 325.62913 244.125067 
L 330.355705 241.937324 
L 335.115695 237.987496 
L 339.802592 236.257043 
L 344.513848 233.207339 
L 349.184758 231.048781 
L 353.855968 228.455682 
L 358.310756 231.593391 
L 362.930229 229.451169 
L 367.654374 224.241574 
L 372.12604 225.186728 
L 376.630981 230.600832 
L 381.179167 235.14646 
L 385.774967 238.825601 
L 390.361056 242.950664 
L 394.999257 246.210051 
L 399.804808 246.41378 
L 404.473321 249.690194 
L 408.988847 256.040906 
L 404.208251 262.172119 
L 399.670045 263.504785 
L 395.071612 265.717774 
L 390.479491 267.499838 
L 385.99235 266.654844 
L 381.305588 269.765155 
L 376.569456 273.761925 
L 371.842293 277.327319 
L 366.966659 284.408061 
L 362.092572 291.486555 
L 357.597522 288.07123 
L 352.918414 289.033589 
L 348.090837 293.957294 
L 343.270634 298.448663 
L 338.493916 301.192753 
L 333.643164 306.138457 
L 328.808732 310.214478 
L 323.954477 314.736204 
L 319.111893 318.390104 
L 314.213595 324.238427 
L 309.271335 332.269192 
L 304.319124 341.159716 
L 299.315952 353.916907 
L 294.381029 363.191833 
L 289.505118 368.174095 
L 284.643889 371.022797 
L 279.789102 371.306298 
L 274.921416 369.868811 
L 270.029395 367.124581 
L 265.112051 360.441442 
L 260.142214 358.077682 
L 255.139851 357.01669 
L 250.128585 362.547185 
L 245.092592 364.134587 
L 240.051908 367.926339 
L 234.988006 370.408762 
L 229.93097 375.096979 
L 224.848949 378.476029 
L 219.72147 379.666175 
L 214.579187 381.302053 
L 209.440857 384.267198 
L 204.233069 384.59339 
L 199.019075 385.806503 
L 193.868801 390.566193 
L 189.165316 385.11586 
L 184.493654 380.559969 
L 179.897567 378.228148 
L 175.236279 373.250709 
L 170.612768 369.168752 
L 165.985541 364.653857 
L 161.368384 360.148789 
z
" style="fill:none;stroke:#ffffff;stroke-width:0.5;"/>
    <path clip-path="url(#p139d330a41)" d="M 193.868801 390.566193 
L 199.019075 385.806503 
L 204.233069 384.59339 
L 209.440857 384.267198 
L 214.579187 381.302053 
L 219.72147 379.666175 
L 224.848949 378.476029 
L 229.93097 375.096979 
L 234.988006 370.408762 
L 240.051908 367.926339 
L 245.092592 364.134587 
L 250.128585 362.547185 
L 255.139851 357.01669 
L 260.142214 358.077682 
L 265.112051 360.441442 
L 270.029395 367.124581 
L 274.921416 369.868811 
L 279.789102 371.306298 
L 284.643889 371.022797 
L 289.505118 368.174095 
L 294.381029 363.191833 
L 299.315952 353.916907 
L 304.319124 341.159716 
L 309.271335 332.269192 
L 314.213595 324.238427 
L 319.111893 318.390104 
L 323.954477 314.736204 
L 328.808732 310.214478 
L 333.643164 306.138457 
L 338.493916 301.192753 
L 343.270634 298.448663 
L 348.090837 293.957294 
L 352.918414 289.033589 
L 357.597522 288.07123 
L 362.092572 291.486555 
L 366.966659 284.408061 
L 371.842293 277.327319 
L 376.569456 273.761925 
L 381.305588 269.765155 
L 385.99235 266.654844 
L 390.479491 267.499838 
L 395.071612 265.717774 
L 399.670045 263.504785 
L 404.208251 262.172119 
L 408.988847 256.040906 
L 413.482273 262.831254 
L 418.15202 266.571766 
L 422.884659 269.448375 
L 427.711647 271.022785 
L 432.557834 272.603458 
L 437.253454 276.818398 
L 441.813672 283.227222 
L 446.376171 289.639251 
L 441.851984 291.471432 
L 437.226795 294.619516 
L 432.645216 296.902643 
L 427.725535 304.426478 
L 422.496175 317.143058 
L 417.642676 323.779156 
L 412.813658 329.984989 
L 408.149347 333.183535 
L 403.450105 336.820565 
L 398.762718 340.035464 
L 394.214852 340.24279 
L 389.687133 339.586217 
L 385.297511 335.450621 
L 380.931733 329.968769 
L 376.354295 328.397877 
L 371.436748 334.294575 
L 366.568545 338.881013 
L 361.642239 344.787809 
L 356.58545 354.186778 
L 351.463255 365.733416 
L 346.373438 376.808764 
L 341.380188 385.278674 
L 336.481394 390.744845 
L 331.68422 392.364553 
L 326.846235 394.848617 
L 321.930795 399.913322 
L 317.161205 398.121971 
L 312.527947 388.090568 
L 307.762128 381.874356 
L 302.897672 378.678468 
L 297.904717 381.63168 
L 292.86843 386.792409 
L 287.844895 390.203558 
L 282.808022 393.623764 
L 277.754562 397.492415 
L 272.698768 399.612321 
L 267.598691 409.201964 
L 262.504144 421.81866 
L 257.429541 429.624286 
L 252.326475 423.970233 
L 247.175744 418.700523 
L 242.037484 423.072593 
L 236.867085 424.819202 
L 231.693859 428.331997 
L 226.926555 423.24623 
L 222.143758 416.407328 
L 217.411817 412.662366 
L 212.647379 406.279826 
L 207.937917 402.556406 
L 203.343424 403.694653 
L 198.619456 397.789678 
z
" style="fill:none;stroke:#ffffff;stroke-width:0.5;"/>
    <path clip-path="url(#p139d330a41)" d="M 231.693859 428.331997 
L 236.867085 424.819202 
L 242.037484 423.072593 
L 247.175744 418.700523 
L 252.326475 423.970233 
L 257.429541 429.624286 
L 262.504144 421.81866 
L 267.598691 409.201964 
L 272.698768 399.612321 
L 277.754562 397.492415 
L 282.808022 393.623764 
L 287.844895 390.203558 
L 292.86843 386.792409 
L 297.904717 381.63168 
L 302.897672 378.678468 
L 307.762128 381.874356 
L 312.527947 388.090568 
L 317.161205 398.121971 
L 321.930795 399.913322 
L 326.846235 394.848617 
L 331.68422 392.364553 
L 336.481394 390.744845 
L 341.380188 385.278674 
L 346.373438 376.808764 
L 351.463255 365.733416 
L 356.58545 354.186778 
L 361.642239 344.787809 
L 366.568545 338.881013 
L 371.436748 334.294575 
L 376.354295 328.397877 
L 380.931733 329.968769 
L 385.297511 335.450621 
L 389.687133 339.586217 
L 394.214852 340.24279 
L 398.762718 340.035464 
L 403.450105 336.820565 
L 408.149347 333.183535 
L 412.813658 329.984989 
L 417.642676 323.779156 
L 422.496175 317.143058 
L 427.725535 304.426478 
L 432.645216 296.902643 
L 437.226795 294.619516 
L 441.851984 291.471432 
L 446.376171 289.639251 
L 451.032423 294.749288 
L 456.071346 294.639455 
L 461.298388 292.339258 
L 466.628101 289.142519 
L 462.124168 290.552278 
L 457.0925 299.01681 
L 451.881507 310.094892 
L 446.867649 318.527985 
L 442.18297 322.170898 
L 437.602556 324.08023 
L 433.174265 323.376705 
L 428.666844 323.545709 
L 424.057353 325.032148 
L 419.299908 328.718933 
L 414.254449 337.22855 
L 409.264179 344.856401 
L 404.371316 350.741573 
L 399.111779 363.555176 
L 394.028471 373.307154 
L 389.250942 377.037716 
L 384.482946 380.347255 
L 379.741799 382.805996 
L 374.928755 386.562413 
L 370.050582 391.615447 
L 365.252562 394.530221 
L 360.656161 391.858686 
L 355.867716 393.4936 
L 351.287859 388.632416 
L 346.508076 388.529686 
L 341.267105 402.3336 
L 336.091549 414.777877 
L 331.425472 409.567738 
L 326.682558 405.614009 
L 321.67037 411.208656 
L 316.71084 414.206978 
L 311.762967 415.910914 
L 306.627832 426.72986 
L 301.5719 433.642736 
L 296.604094 434.52257 
L 291.580251 438.000642 
L 286.519799 443.645777 
L 281.458113 448.865983 
L 276.377825 455.81216 
L 271.318794 458.468032 
L 266.267434 452.936495 
L 261.171761 442.548406 
L 256.013811 439.074976 
L 250.832112 441.74882 
L 246.058004 445.398119 
L 241.330649 449.885936 
L 236.484952 435.182302 
z
" style="fill:none;stroke:#ffffff;stroke-width:0.5;"/>
   </g>
  </g>
 </g>
 <defs>
  <clipPath id="p139d330a41">
   <rect height="482.4" width="482.4" x="10.8" y="10.8"/>
  </clipPath>
 </defs>
</svg>
